<svg width="100" height="100" viewBox="0 0 100 100" fill="none" xmlns="http://www.w3.org/2000/svg">
<rect width="100" height="100" rx="10" fill="white"/>
<path d="M71.096 28.688V29.904C69.7307 30.2027 68.2587 30.8 66.68 31.696C65.144 32.592 63.5227 34.0427 61.816 36.048L49.784 50.384L53.496 45.072L68.728 68.816C69.3253 69.7973 69.9653 70.5867 70.648 71.184C71.3307 71.7813 72.2267 72.2933 73.336 72.72V74C71.8427 73.9147 70.1787 73.872 68.344 73.872C66.5093 73.8293 64.8453 73.808 63.352 73.808C62.456 73.808 61.368 73.8293 60.088 73.872C58.808 73.872 57.1867 73.9147 55.224 74V72.72C56.9733 72.6347 58.0187 72.4 58.36 72.016C58.744 71.5893 58.5947 70.864 57.912 69.84L48.632 54.8C48.0347 53.8187 47.5013 53.0933 47.032 52.624C46.5627 52.112 46.0933 51.7707 45.624 51.6C45.1547 51.3867 44.536 51.2587 43.768 51.216V49.872C45.6453 49.8293 47.3093 49.3173 48.76 48.336C50.2533 47.3547 51.8747 45.8613 53.624 43.856L57.4 39.312C59.0213 37.392 59.96 35.7493 60.216 34.384C60.5147 32.976 60.2373 31.888 59.384 31.12C58.5733 30.352 57.3147 29.9467 55.608 29.904V28.688C56.6747 28.7307 57.6773 28.7733 58.616 28.816C59.5973 28.816 60.6 28.8373 61.624 28.88C62.6907 28.88 63.8427 28.88 65.08 28.88C66.3173 28.88 67.4267 28.8587 68.408 28.816C69.432 28.7733 70.328 28.7307 71.096 28.688ZM48.952 28.688V29.968C47.5867 30.0107 46.5413 30.1813 45.816 30.48C45.1333 30.736 44.6853 31.248 44.472 32.016C44.2587 32.7413 44.152 33.8933 44.152 35.472V67.216C44.152 68.752 44.2587 69.904 44.472 70.672C44.728 71.44 45.1973 71.952 45.88 72.208C46.5627 72.464 47.5867 72.6347 48.952 72.72V74C47.8 73.9147 46.3493 73.872 44.6 73.872C42.8507 73.8293 41.08 73.808 39.288 73.808C37.24 73.808 35.2987 73.8293 33.464 73.872C31.672 73.872 30.2427 73.9147 29.176 74V72.72C30.5413 72.6347 31.5653 72.464 32.248 72.208C32.9307 71.952 33.3787 71.44 33.592 70.672C33.848 69.904 33.976 68.752 33.976 67.216V35.472C33.976 33.8933 33.848 32.7413 33.592 32.016C33.3787 31.248 32.9093 30.736 32.184 30.48C31.5013 30.1813 30.4987 30.0107 29.176 29.968V28.688C30.2427 28.7307 31.672 28.7733 33.464 28.816C35.2987 28.8587 37.24 28.88 39.288 28.88C41.08 28.88 42.8507 28.8587 44.6 28.816C46.3493 28.7733 47.8 28.7307 48.952 28.688Z" fill="black"/>
</svg>
